. 
  
http://www.torrentday.com/        :     The Hottest Private Tracker On The Net!!!
 
http://www.torrentday.com          :     Once & For all ;)


               www . TorrentDay . Com 

(((((((((((((= Enjoy No RAR releases =))))))))))))))))))))


...................................NFO:....................................


::::::::::::::Enjoy:Another:Release:From:T0XiC::::::::::::::

File:: Little.Fockers.2010.TS.NEW.AUDIO.XViD.AC3-T0XiC-iNK
Video Source::..Little Fockers 2010 720p TS XViD - IMAGiNE, thanks guys :)
Audio Source:: ....own, thx matey
Language::English
IMDB::http://www.imdb.com/title/tt0970866/

Family-patriarch Jack Byrnes wants to appoint a successor. Does his son-in-law, the "male nurse", Greg Focker have what it takes?

Specs::

General

Format                           : AVI
Format/Info                      : Audio Video Interleave
File size                        : 1.38 GiB
Duration                         : 1h 33mn
Overall bit rate                 : 2 108 Kbps
Writing application              : VirtualDubMod 1.5.10.2 (build 2542/release)
Writing library                  : VirtualDubMod build 2542/release

Video
ID                               : 0
Format                           : MPEG-4 Visual
Format profile                   : Advanced Simple@L5
Format settings, BVOP            : Yes
Format settings, QPel            : No
Format settings, GMC             : No warppoints
Format settings, Matrix          : Default (H.263)
Codec ID                         : XVID
Codec ID/Hint                    : XviD
Duration                         : 1h 33mn
Bit rate                         : 1 906 Kbps
Width                            : 720 pixels
Height                           : 384 pixels
Display aspect ratio             : 1.875
Frame rate                       : 25.000 fps
Color space                      : YUV
Chroma subsampling               : 4:2:0
Bit depth                        : 8 bits
Scan type                        : Progressive
Bits/(Pixel*Frame)               : 0.276
Stream size                      : 1.24 GiB (90%)
Writing library                  : XviD 1.2.0.dev47 (UTC 2006-11-01)

Audio
ID                               : 1
Format                           : AC-3
Format/Info                      : Audio Coding 3
Mode extension                   : CM (complete main)
Codec ID                         : 2000
Duration                         : 1h 33mn
Bit rate mode                    : Constant
Bit rate                         : 192 Kbps
Channel(s)                       : 2 channels
Channel positions                : Front: L R
Sampling rate                    : 48.0 KHz
Bit depth                        : 16 bits
Stream size                      : 128 MiB (9%)
Alignment                        : Split accross interleaves
Interleave, duration             : 40 ms (1.00 video frame)
Interleave, preload duration     : 500 ms




NOTES:: We had the audio and i heard a few people complain about the audio on the other releases, so we decided we might as well do a release :P
we used the 720p and cut it down to a 1.4gb, looks very nice for the size it is, make sure you check the sample for the quality
enjoy :)


::Why Complain? Whats Free Is Free::

::We are always looking for friends with unreleased DVD's, Screeners, R5's, Audio, Cams, Silvers,
...and any other good sources you may have to offer - contact us: t0xicreleases@hushmail.com

::::::::::::::::::::::::::::::::::::   Respect To   :::::::::::::::::::::::::::::::::::::
::IMAGiNE,FLAWL3SS,Hive-CM8,DiGiTALiNK,Tranz,Vik,OneTwo,Joey,bob,& our friends on utn and PA::
                       "and to all of you who support us, Thank-You"

[img]http://noob.hu/2011/01/25/bscap0018.jpg[/img]
[img]http://noob.hu/2011/01/25/bscap0017.jpg[/img]
[img]http://noob.hu/2011/01/25/bscap0016.jpg[/img]
[img]http://noob.hu/2011/01/25/bscap0020.jpg[/img]